<?xml version="1.0" encoding="utf-8"?>
<!-- Svg Vector Icons : http://www.onlinewebfonts.com/icon -->
<!DOCTYPE svg PUBLIC "-//W3C//DTD SVG 1.1//EN" "http://www.w3.org/Graphics/SVG/1.1/DTD/svg11.dtd">
<svg version="1.1" xmlns="http://www.w3.org/2000/svg" xmlns:xlink="http://www.w3.org/1999/xlink" x="0px" y="0px" viewBox="0 0 1000 1000" enable-background="new 0 0 1000 1000" xml:space="preserve">
<metadata> Svg Vector Icons : http://www.onlinewebfonts.com/icon </metadata>
<g><path d="M500,990C228.5,990,10,771.5,10,500S228.5,10,500,10c271.5,0,490,218.5,490,490S771.5,990,500,990z M500,91.7C275.4,91.7,91.7,275.4,91.7,500c0,224.6,183.8,408.3,408.3,408.3c224.6,0,408.3-183.8,408.3-408.3C908.3,275.4,724.6,91.7,500,91.7z M732.8,732.8c-16.3,16.3-40.8,16.3-57.2,0L500,557.2L322.4,734.8c-16.3,16.3-40.8,16.3-57.2,0c-16.3-16.3-16.3-40.8,0-57.2L442.8,500L265.2,322.4c-16.3-16.3-16.3-40.8,0-57.2c16.3-16.3,40.8-16.3,57.2,0L500,442.8l177.6-177.6c16.3-16.3,40.8-16.3,57.2,0c16.3,16.3,16.3,40.8,0,57.2L557.2,500l177.6,177.6C749.1,691.9,749.1,718.5,732.8,732.8z"/></g>
</svg>