<?xml version="1.0" encoding="utf-8"?>
<!-- Svg Vector Icons : http://www.onlinewebfonts.com/icon -->
<!DOCTYPE svg PUBLIC "-//W3C//DTD SVG 1.1//EN" "http://www.w3.org/Graphics/SVG/1.1/DTD/svg11.dtd">
<svg version="1.1" xmlns="http://www.w3.org/2000/svg" xmlns:xlink="http://www.w3.org/1999/xlink" x="0px" y="0px" viewBox="0 0 1000 1000" enable-background="new 0 0 1000 1000" xml:space="preserve">
<metadata> Svg Vector Icons : http://www.onlinewebfonts.com/icon </metadata>
<g><g><path d="M10,207.4c-0.1-18.8,14.7-18.6,14.7-18.6c62.6,0,543.2,0,627.1,0.1c27.3-0.1,45,0,45,0s0-65.2,0-106.3c0-41.1,30.8-10,30.8-10s230.6,178,255,202.3c17.4,17.6-2.1,34.3-2.1,34.3L733.5,517.8c0,0-29.4,31-29.4-2.6c0.1-33.8,0-115.2,0-115.2s-19.8,0-50.1-0.1c-86.9,0.1-562.2,0-626.6,0c0,0-17.4,4.6-17.4-21.8C10,351.4,10,226.3,10,207.4z"/><path d="M989.9,615.3c0.1-19-14.7-18.6-14.7-18.6c-62.5,0-543.2,0-627.2,0.1c-27.3-0.1-45,0-45,0s0-65.3,0-106.3c0-41-30.8-10.1-30.8-10.1s-230.6,178-255,202.2c-17.4,17.7,2.1,34.6,2.1,34.6l247,208.6c0,0,29.3,30.9,29.3-2.8c-0.1-33.8,0-115.1,0-115.1s19.8,0,50.2-0.2c86.9,0.2,562.2,0,626.5,0c0,0,17.6,4.7,17.7-21.9C989.9,759.2,989.9,634.3,989.9,615.3z"/><g></g><g></g><g></g><g></g><g></g><g></g><g></g><g></g><g></g><g></g><g></g><g></g><g></g><g></g><g></g></g><g></g><g></g><g></g><g></g><g></g><g></g><g></g><g></g><g></g><g></g><g></g><g></g><g></g><g></g><g></g></g>
</svg>