<?xml version="1.0" encoding="utf-8"?>
<!-- Svg Vector Icons : http://www.onlinewebfonts.com/icon -->
<!DOCTYPE svg PUBLIC "-//W3C//DTD SVG 1.1//EN" "http://www.w3.org/Graphics/SVG/1.1/DTD/svg11.dtd">
<svg version="1.1" xmlns="http://www.w3.org/2000/svg" xmlns:xlink="http://www.w3.org/1999/xlink" x="0px" y="0px" viewBox="0 0 1000 1000" enable-background="new 0 0 1000 1000" xml:space="preserve">
<metadata> Svg Vector Icons : http://www.onlinewebfonts.com/icon </metadata>
<g><path d="M928.8,71.3H806.3v61.2h122.5v796.3H255V806.3c0-33.8-27.4-61.2-61.3-61.2H71.3V132.5h122.5V71.3H71.3C37.4,71.3,10,98.7,10,132.5V745c0,18.6,8.3,35,21.3,46.3v0.2l178.9,178.8c11.3,12,27.2,19.6,44.8,19.6h673.8c33.8,0,61.2-27.4,61.2-61.2V132.5C990,98.7,962.6,71.3,928.8,71.3L928.8,71.3L928.8,71.3z M622.5,71.3h-245v61.2h245V71.3L622.5,71.3L622.5,71.3z M285.6,193.8L285.6,193.8c-16.9,0-30.6-13.7-30.6-30.6V40.6c0-16.9,13.7-30.6,30.6-30.6l0,0c16.9,0,30.6,13.7,30.6,30.6v122.5C316.3,180,302.5,193.8,285.6,193.8z M714.4,193.8L714.4,193.8c-16.9,0-30.6-13.7-30.6-30.6V40.6c0-16.9,13.7-30.6,30.6-30.6l0,0c16.9,0,30.6,13.7,30.6,30.6v122.5C745,180,731.3,193.8,714.4,193.8z M775.6,346.9H224.4c-16.9,0-30.6-13.7-30.6-30.6l0,0c0-16.9,13.7-30.6,30.6-30.6h551.3c16.9,0,30.6,13.7,30.6,30.6l0,0C806.3,333.2,792.5,346.9,775.6,346.9z M690.1,491.2H224.4c-16.9,0-30.6-13.7-30.6-30.6l0,0c0-16.9,13.7-30.6,30.6-30.6h465.7c16.9,0,30.6,13.7,30.6,30.6l0,0C720.7,477.5,707,491.2,690.1,491.2z M571.5,633.3H224.4c-16.9,0-30.6-13.7-30.6-30.6l0,0c0-16.9,13.7-30.6,30.6-30.6h347.2c16.9,0,30.6,13.7,30.6,30.6l0,0C602.2,619.6,588.4,633.3,571.5,633.3z"/></g>
</svg>