<?xml version="1.0" encoding="iso-8859-1"?>
<!-- Generator: Adobe Illustrator 19.0.0, SVG Export Plug-In . SVG Version: 6.00 Build 0)  -->
<svg version="1.1" id="Capa_1" xmlns="http://www.w3.org/2000/svg" xmlns:xlink="http://www.w3.org/1999/xlink" x="0px" y="0px"
	 viewBox="0 0 489.8 489.8" style="enable-background:new 0 0 489.8 489.8;" xml:space="preserve">
<g>
	<path d="M439.647,342c7.3-7.3,7.3-18.8,1-27.1l-171.8-215.1c-6.4-56.1-54.1-99.8-111.8-99.8c-62,0-112.5,50.5-112.5,112.5
		c0,58.6,45.1,106.9,102.4,112l213.4,170.5c11.3,8.4,22.9,2.1,28.1-2.1l7.3-7.3c2.6,5.8,4.1,12.1,4.1,18.8c0,11.5-5.2,24-13.6,32.3
		c-17.7,17.7-48,17.7-65.7,0l-123-123c-10.4-10.4-24-15.6-38.6-15.6s-28.1,5.2-38.6,15.6c-20.9,20.9-20.9,56.3,0,77.1l84.4,84.4
		c8.3,8.3,20.9,8.3,29.2,0s8.3-20.9,0-29.2l-84.4-84.4c-5.2-6.3-5.2-14.6,0-19.8c5.2-5.2,14.6-5.2,19.8,0l122,123
		c16.7,16.7,39.6,25,61.5,25c22.9,0,44.8-8.3,62.6-24c16.7-16.7,26.1-38.6,26.1-61.5c0-17.6-5.5-34.5-15.6-49L439.647,342z
		 M85.547,112.6c0-39.4,32.1-71.5,71.5-71.5c36.6,0,66.8,27.6,71,63.1l-79.4,79.4C113.147,179.4,85.547,149.2,85.547,112.6z
		 M370.747,351.3l-185.6-148l62.6-62.6l148,185.6L370.747,351.3z"/>
</g>
<g>
</g>
<g>
</g>
<g>
</g>
<g>
</g>
<g>
</g>
<g>
</g>
<g>
</g>
<g>
</g>
<g>
</g>
<g>
</g>
<g>
</g>
<g>
</g>
<g>
</g>
<g>
</g>
<g>
</g>
</svg>
