<?xml version="1.0" encoding="utf-8"?>
<!-- Svg Vector Icons : http://www.onlinewebfonts.com/icon -->
<!DOCTYPE svg PUBLIC "-//W3C//DTD SVG 1.1//EN" "http://www.w3.org/Graphics/SVG/1.1/DTD/svg11.dtd">
<svg version="1.1" xmlns="http://www.w3.org/2000/svg" xmlns:xlink="http://www.w3.org/1999/xlink" x="0px" y="0px" viewBox="0 0 1000 1000" enable-background="new 0 0 1000 1000" xml:space="preserve">
<metadata> Svg Vector Icons : http://www.onlinewebfonts.com/icon </metadata>
<g><g transform="translate(0.000000,511.000000) scale(0.100000,-0.100000)"><path d="M4412.7,4985.7c-1099.4-138-2088.5-625.6-2875.1-1412.3C594.5,2632.7,100,1441.2,100,111.8c0-1329.4,494.5-2518.6,1437.6-3461.6c933.8-936.1,2141.4-1437.6,3461.6-1437.6c1722.8,0,3296,887.8,4199.9,2369.1c738.3,1212.1,903.9,2741.7,446.2,4098.7c-602.6,1775.7-2152.9,3045.3-4025.2,3298.3C5355.7,5013.3,4670.3,5017.8,4412.7,4985.7z M5318.9,4021.9c1202.9-108.1,2272.5-736,2934.9-1725.1C8953,1250.3,9111.7-42.3,8688.5-1226.9c-82.8-232.3-305.9-662.4-450.8-874C7699.5-2880.6,6883-3455.6,5985.9-3683.4c-593.4-151.8-1200.6-167.9-1787.2-46C2091.9-3292.3,718.7-1197,1158,909.9c317.4,1525,1520.4,2725.6,3049.9,3045.3C4599,4035.7,4927.9,4056.4,5318.9,4021.9z"/><path d="M3044.1,111.8v-483h1955.1h1955.1v483v483H4999.2H3044.1V111.8z"/></g></g>
</svg>