<?xml version="1.0" encoding="utf-8"?>
<!-- Svg Vector Icons : http://www.onlinewebfonts.com/icon -->
<!DOCTYPE svg PUBLIC "-//W3C//DTD SVG 1.1//EN" "http://www.w3.org/Graphics/SVG/1.1/DTD/svg11.dtd">
<svg version="1.1" xmlns="http://www.w3.org/2000/svg" xmlns:xlink="http://www.w3.org/1999/xlink" x="0px" y="0px" viewBox="0 0 1000 1000" enable-background="new 0 0 1000 1000" xml:space="preserve">
<metadata> Svg Vector Icons : http://www.onlinewebfonts.com/icon </metadata>
<g><g><g><path d="M952.5,398.2h-51.9V294.4c0-21.1-17.3-38.4-38.4-38.4H487.5l-50-80.7c-7.7-11.5-17.3-19.2-30.7-19.2H128.2c-21.1,0-36.5,17.3-36.5,38.4v203.7H49.4c-23.1,0-44.2,21.1-38.4,46.1l80.7,368.9c3.8,17.3,19.2,30.7,36.5,30.7h734c17.3,0,34.6-11.5,38.4-28.8L989,444.3C994.7,419.3,975.5,398.2,952.5,398.2z M166.6,231h217.1l50,82.6c7.7,11.5,19.2,17.3,32.7,17.3h359.3v67.3H166.6V231z M833.3,767.1H158.9l-63.4-294h808.9L833.3,767.1z"/></g></g><g></g><g></g><g></g><g></g><g></g><g></g><g></g><g></g><g></g><g></g><g></g><g></g><g></g><g></g><g></g></g>
</svg>