<?xml version="1.0" encoding="utf-8"?>
<!-- Svg Vector Icons : http://www.onlinewebfonts.com/icon -->
<!DOCTYPE svg PUBLIC "-//W3C//DTD SVG 1.1//EN" "http://www.w3.org/Graphics/SVG/1.1/DTD/svg11.dtd">
<svg version="1.1" xmlns="http://www.w3.org/2000/svg" xmlns:xlink="http://www.w3.org/1999/xlink" x="0px" y="0px" viewBox="0 0 1000 1000" enable-background="new 0 0 1000 1000" xml:space="preserve">
<metadata> Svg Vector Icons : http://www.onlinewebfonts.com/icon </metadata>
<g>
    <g transform="translate(0.000000,512.000000) scale(0.100000,-0.100000)">
        <path d="M4812.1,4993.3c-189.9-69-345.2-239.7-385.5-425.8c-11.5-53.7-21.1-224.4-21.1-381.6V3904l-166.9-32.6c-92.1-17.3-268.5-63.3-393.2-101.6c-124.7-40.3-230.1-67.1-234-63.3c-3.8,3.8-65.2,111.2-138.1,237.8c-218.6,385.5-360.5,496.7-631,496.7c-182.2,0-306.9-55.6-431.5-193.7c-107.4-117-153.4-237.8-153.4-400.8c0-132.3,28.8-207.1,189.9-481.4c74.8-130.4,136.2-239.7,136.2-243.5c0-11.5-573.4-586.9-584.9-586.9c-3.8,0-111.2,61.4-237.8,134.2c-276.2,163-354.8,191.8-502.5,191.8c-327.9,0-581.1-255.1-581.1-584.9c1.9-270.4,105.5-402.7,487.1-623.3c132.3-76.7,243.6-141.9,247.4-145.7c5.8-3.8-19.2-94-51.8-197.5c-32.6-103.6-78.6-280-103.6-391.2l-44.1-201.4l-335.6-7.7c-322.2-5.7-339.5-7.7-444.9-59.4C218.9,544,101.9,356,100,118.2c0-118.9,9.6-163,53.7-253.2C215.1-259.6,326.3-367,452.9-424.5c76.7-36.4,132.3-42.2,425.8-47.9l335.6-7.7l32.6-166.8c19.2-94,63.3-262.7,99.7-377.8c36.4-115.1,67.1-216.7,67.1-228.2c0-9.6-113.1-82.5-249.3-161.1c-138.1-78.6-281.9-174.5-320.3-211c-164.9-163-214.8-435.3-122.7-650.1c57.5-126.6,216.7-276.2,339.5-318.4c111.2-38.3,283.8-40.3,383.6-3.8c42.2,13.4,180.3,88.2,308.8,163c130.4,74.8,239.7,136.2,245.5,136.2c11.5,0,584.9-573.4,584.9-584.9c0-3.8-61.4-111.2-134.2-237.8c-163-276.2-191.8-354.8-191.8-502.5c0-328,255.1-581.1,584.9-581.1c272.3,1.9,412.3,111.3,632.9,500.6c72.9,130.4,140,235.9,149.6,235.9c11.5,0,97.8-24.9,193.7-55.6c95.9-30.7,266.6-76.7,379.7-101.6l203.3-44.1l7.7-335.6c7.7-377.8,24.9-443,159.2-590.7c224.4-251.2,638.6-251.2,863,0c134.2,147.7,151.5,212.9,159.2,592.6l7.7,337.5l174.5,32.6c97.8,19.2,274.2,65.2,393.2,105.5l216.7,70.9l145.8-255.1c82.5-141.9,178.4-287.7,216.7-326c161.1-164.9,433.4-214.8,648.2-122.7c209.1,92.1,349,312.6,349,550.4c0,132.3-28.8,203.3-189.9,483.3c-74.8,130.4-136.2,241.7-136.2,245.5c0,9.6,575.3,583,584.9,583c3.8,0,111.2-61.4,237.8-134.2c276.2-163,354.8-191.8,502.5-191.8c326,0,581.1,257,581.1,584.9c-1.9,270.4-105.5,402.7-487.1,623.3c-132.3,76.7-243.6,141.9-247.4,145.8c-5.8,3.8,19.2,94,51.8,197.5c32.6,103.6,78.6,280,103.6,391.2l44.1,201.4l335.6,7.7c291.5,5.8,347.1,11.5,423.8,47.9c126.6,57.5,237.8,164.9,299.2,289.6c44.1,90.1,53.7,134.2,53.7,253.2c-1.9,237.8-118.9,425.8-331.8,531.2c-105.5,51.8-122.7,53.7-446.8,59.4l-335.6,7.7l-32.6,164.9c-17.3,90.1-63.3,266.6-101.6,391.2c-40.3,124.7-67.1,230.1-63.3,234c3.8,3.8,111.3,65.2,237.8,138.1c385.5,218.6,496.7,360.5,496.7,630.9c0,180.3-55.6,306.8-191.8,429.6c-118.9,109.3-235.9,155.3-393.2,155.3c-141.9,0-209-26.8-492.9-189.9c-130.4-74.8-241.7-136.2-245.5-136.2c-9.6,0-583,575.3-583,584.9c0,3.8,61.4,111.2,134.2,237.8c163,276.2,191.8,354.8,191.8,502.5c0,326-257,581.1-584.9,581.1c-270.4-1.9-402.7-105.5-623.3-487.1c-76.7-132.3-141.9-243.6-145.8-247.4c-3.8-5.8-94,19.2-197.5,51.8c-103.6,32.6-280,78.6-391.2,103.6l-201.4,44.1l-7.7,335.6c-5.8,322.2-7.7,339.5-59.5,444.9C5398.9,4954.9,5084.4,5089.2,4812.1,4993.3z M5239.7,2975.8c705.7-67.1,1290.7-341.4,1783.6-834.2C8078.1,1086.7,8154.8-553,7203.6-1713.3c-832.3-1016.4-2295.6-1329-3473.2-738.4c-686.6,343.3-1221.6,958.9-1455.6,1672.3c-189.9,584.9-189.9,1212.1,1.9,1800.8c136.2,414.2,374,795.9,700,1120c483.3,485.2,1081.6,767.1,1754.8,832.3C4969.3,2996.9,5007.7,2996.9,5239.7,2975.8z"/>
    </g>
    <g>
        <path d="M10,886.8L886.8,10L990,113.2L113.2,990L10,886.8z"/>
    </g>
</g>
</svg>
