<?xml version="1.0" ?><svg enable-background="new 0 0 52 52" id="Layer_1" version="1.1" viewBox="0 0 52 52" xml:space="preserve" xmlns="http://www.w3.org/2000/svg" xmlns:xlink="http://www.w3.org/1999/xlink"><g><g><g><g><path d="M15,50C9.4858398,50,5,45.5141602,5,40V10h20v30C25,45.5141602,20.5141602,50,15,50z M7,12v28      c0,4.4111328,3.5888672,8,8,8s8-3.5888672,8-8V12H7z"/></g></g><g><g><path d="M23,12H7V2h16V12z M9,10h12V4H9V10z"/></g></g><g><g><rect height="4" width="2" x="17" y="3"/></g></g><g><g><rect height="4" width="2" x="11" y="3"/></g></g></g><g><g><path d="M47,18H27v-6c0-5.5141602,4.4858398-10,10-10s10,4.4858398,10,10V18z M29,16h16v-4c0-4.4111328-3.5888672-8-8-8     s-8,3.5888672-8,8V16z"/></g></g></g></svg>